<svg width="24" height="23" viewBox="0 0 24 23" fill="none" xmlns="http://www.w3.org/2000/svg">
<path d="M14.7782 11.5025L22.8839 3.69103C23.6779 2.92591 23.6779 1.68532 22.8839 0.920195L22.5245 0.573841C21.7305 -0.19128 20.4432 -0.19128 19.6492 0.573841L11.7423 8.19373L3.83537 0.573841C3.04139 -0.19128 1.75409 -0.19128 0.960154 0.573841L0.600689 0.920195C-0.193249 1.68532 -0.193249 2.92591 0.600689 3.69103L8.7012 11.4974L0.595453 19.3089C-0.198484 20.074 -0.198484 21.3146 0.595453 22.0797L0.954826 22.4262C1.74886 23.1913 3.03615 23.1913 3.83014 22.4262L11.737 14.8063L19.644 22.4262C20.438 23.1913 21.7253 23.1913 22.5192 22.4262L22.8787 22.0797C23.6726 21.3146 23.6726 20.074 22.8787 19.3089L14.7782 11.5025Z" fill="white"/>
</svg>
