<svg width="21" height="30" viewBox="0 0 21 30" fill="none" xmlns="http://www.w3.org/2000/svg">
<path d="M0 26.25V3.75C0 1.44111 4.68361 0 10.5 0C16.3164 0 21 1.44111 21 3.75V26.25C21 28.5589 16.3164 30 10.5 30C4.68361 30 0 28.5589 0 26.25ZM1.5 24.2093C3.33438 23.1243 6.67184 22.5 10.5 22.5C14.3282 22.5 17.6656 23.1243 19.5 24.2093V5.79066C17.6656 6.87573 14.3282 7.5 10.5 7.5C6.67184 7.5 3.33438 6.87573 1.5 5.79066V24.2093ZM10.5 6C15.4532 6 19.5 4.75482 19.5 3.75C19.5 2.74518 15.4532 1.5 10.5 1.5C5.54684 1.5 1.5 2.74518 1.5 3.75C1.5 4.75482 5.54684 6 10.5 6ZM10.5 28.5C15.4532 28.5 19.5 27.2548 19.5 26.25C19.5 25.2452 15.4532 24 10.5 24C5.54684 24 1.5 25.2452 1.5 26.25C1.5 27.2548 5.54684 28.5 10.5 28.5Z" fill="white"/>
</svg>
